<mxfile host="app.diagrams.net" modified="2024-01-15T10:30:00.000Z" agent="5.0" etag="example" version="22.0.0">
  <diagram name="Toplama Algoritması" id="flowchart">
    <mxGraphModel dx="1422" dy="794" grid="1" gridSize="10" guides="1" tooltips="1" connect="1" arrows="1" fold="1" page="1" pageScale="1" pageWidth="827" pageHeight="1169" math="0" shadow="0">
      <root>
        <mxCell id="0"/>
        <mxCell id="1" parent="0"/>
        
        <!-- BAŞLA -->
        <mxCell id="start" value="BAŞLA" style="ellipse;whiteSpace=wrap;html=1;fillColor=#d5e8d4;strokeColor=#82b366;" vertex="1" parent="1">
          <mxGeometry x="340" y="40" width="120" height="60" as="geometry"/>
        </mxCell>
        
        <!-- Birinci sayıyı girin -->
        <mxCell id="input1" value="&quot;Birinci sayıyı girin&quot;" style="shape=parallelogram;perimeter=parallelogramPerimeter;whiteSpace=wrap;html=1;fixedSize=1;fillColor=#dae8fc;strokeColor=#6c8ebf;" vertex="1" parent="1">
          <mxGeometry x="320" y="140" width="160" height="60" as="geometry"/>
        </mxCell>
        
        <!-- sayı1 al -->
        <mxCell id="read1" value="sayı1 al" style="shape=parallelogram;perimeter=parallelogramPerimeter;whiteSpace=wrap;html=1;fixedSize=1;fillColor=#dae8fc;strokeColor=#6c8ebf;" vertex="1" parent="1">
          <mxGeometry x="340" y="240" width="120" height="60" as="geometry"/>
        </mxCell>
        
        <!-- İkinci sayıyı girin -->
        <mxCell id="input2" value="&quot;İkinci sayıyı girin&quot;" style="shape=parallelogram;perimeter=parallelogramPerimeter;whiteSpace=wrap;html=1;fixedSize=1;fillColor=#dae8fc;strokeColor=#6c8ebf;" vertex="1" parent="1">
          <mxGeometry x="320" y="340" width="160" height="60" as="geometry"/>
        </mxCell>
        
        <!-- sayı2 al -->
        <mxCell id="read2" value="sayı2 al" style="shape=parallelogram;perimeter=parallelogramPerimeter;whiteSpace=wrap;html=1;fixedSize=1;fillColor=#dae8fc;strokeColor=#6c8ebf;" vertex="1" parent="1">
          <mxGeometry x="340" y="440" width="120" height="60" as="geometry"/>
        </mxCell>
        
        <!-- toplam hesaplama -->
        <mxCell id="calculate" value="toplam ← sayı1 + sayı2" style="rounded=0;whiteSpace=wrap;html=1;fillColor=#fff2cc;strokeColor=#d6b656;" vertex="1" parent="1">
          <mxGeometry x="310" y="540" width="180" height="60" as="geometry"/>
        </mxCell>
        
        <!-- Sonucu göster -->
        <mxCell id="output" value="Sonucu göster" style="shape=parallelogram;perimeter=parallelogramPerimeter;whiteSpace=wrap;html=1;fixedSize=1;fillColor=#ffe6cc;strokeColor=#d79b00;" vertex="1" parent="1">
          <mxGeometry x="340" y="640" width="120" height="60" as="geometry"/>
        </mxCell>
        
        <!-- BITIR -->
        <mxCell id="end" value="BITIR" style="ellipse;whiteSpace=wrap;html=1;fillColor=#f8cecc;strokeColor=#b85450;" vertex="1" parent="1">
          <mxGeometry x="340" y="740" width="120" height="60" as="geometry"/>
        </mxCell>
        
        <!-- Connections -->
        <mxCell id="edge1" edge="1" parent="1" source="start" target="input1">
          <mxGeometry relative="1" as="geometry"/>
        </mxCell>
        <mxCell id="edge2" edge="1" parent="1" source="input1" target="read1">
          <mxGeometry relative="1" as="geometry"/>
        </mxCell>
        <mxCell id="edge3" edge="1" parent="1" source="read1" target="input2">
          <mxGeometry relative="1" as="geometry"/>
        </mxCell>
        <mxCell id="edge4" edge="1" parent="1" source="input2" target="read2">
          <mxGeometry relative="1" as="geometry"/>
        </mxCell>
        <mxCell id="edge5" edge="1" parent="1" source="read2" target="calculate">
          <mxGeometry relative="1" as="geometry"/>
        </mxCell>
        <mxCell id="edge6" edge="1" parent="1" source="calculate" target="output">
          <mxGeometry relative="1" as="geometry"/>
        </mxCell>
        <mxCell id="edge7" edge="1" parent="1" source="output" target="end">
          <mxGeometry relative="1" as="geometry"/>
        </mxCell>
        
      </root>
    </mxGraphModel>
  </diagram>
</mxfile>